<svg version="1.1" id="Layer_1" xmlns="http://www.w3.org/2000/svg" xmlns:xlink="http://www.w3.org/1999/xlink" x="0px" y="0px"
	 width="100%" viewBox="0 0 400 400" enable-background="new 0 0 400 400" xml:space="preserve">
<path fill="#3557FE" opacity="1.000000" stroke="none" 
	d="
M222.000000,401.000000 
	C148.022964,401.000000 74.545929,401.000000 1.034447,401.000000 
	C1.034447,267.731293 1.034447,134.462585 1.034447,1.096937 
	C134.226990,1.096937 267.454071,1.096937 400.840576,1.096937 
	C400.840576,134.333176 400.840576,267.666565 400.840576,401.000000 
	C341.462677,401.000000 281.981323,401.000000 222.000000,401.000000 
M345.691132,168.672897 
	C345.501129,168.406998 345.277954,168.172653 345.014954,167.990692 
	C345.014954,167.990692 345.040924,167.973114 344.701263,167.344238 
	C339.768433,163.905167 337.351410,167.579407 334.863770,171.222305 
	C326.523621,166.889450 317.812805,165.572540 308.679169,165.925964 
	C300.726776,166.233688 292.751404,165.900528 284.789032,166.028763 
	C282.892487,166.059296 281.007324,166.800339 279.117889,167.132523 
	C279.117889,167.132523 279.179260,167.186996 278.469543,167.128906 
	C275.071930,166.555542 271.679321,165.585159 268.275024,165.542282 
	C265.826416,165.511475 261.886993,166.000519 261.159454,167.496414 
	C257.945740,174.103867 255.654449,181.159973 252.996506,188.002838 
	C252.996506,188.002838 253.055557,187.990326 252.621353,188.396469 
	C252.417465,188.942307 252.213577,189.488144 251.988068,189.997574 
	C251.988068,189.997574 252.030273,190.001129 251.377151,190.203537 
	C249.239716,193.858261 247.164307,197.551376 244.936874,201.150391 
	C243.927048,202.782059 242.615524,204.227020 241.788025,205.304596 
	C239.173965,202.992630 237.296722,201.332352 235.263138,199.593811 
	C235.263138,199.593811 235.329376,199.432007 235.468918,198.696274 
	C234.276840,196.748840 233.084763,194.801392 231.738663,192.808990 
	C231.738663,192.808990 231.778229,192.653503 231.820084,191.888840 
	C231.162186,190.946442 230.504288,190.004044 229.916702,189.073486 
	C229.916702,189.073486 229.902573,189.143387 229.939590,188.360214 
	C228.228134,185.259262 226.516693,182.158295 224.892471,179.085495 
	C224.892471,179.085495 224.862442,179.172104 224.935104,178.368423 
	C224.558060,176.647049 224.528030,174.737534 223.721130,173.249207 
	C222.563232,171.113434 220.838882,169.284760 219.127167,167.315796 
	C219.127167,167.315796 219.022675,167.111588 218.339935,166.630280 
	C214.100479,166.441025 209.858704,166.071121 205.622345,166.125153 
	C202.730118,166.162018 202.109390,167.678452 203.355820,170.447678 
	C204.568863,173.142731 205.163467,176.116150 206.012482,179.870483 
	C206.002747,181.368347 205.932022,182.868790 205.995407,184.363556 
	C206.146942,187.936249 204.603607,189.619217 200.944794,189.169525 
	C200.455841,187.784592 200.001724,186.498337 199.511139,185.108780 
	C193.517731,186.993469 187.898941,188.760361 181.014145,190.925369 
	C180.669739,186.859711 179.853943,183.328293 180.204102,179.916550 
	C180.713699,174.951538 182.063187,170.072739 183.036545,165.246338 
	C177.969299,164.093842 173.955673,163.180984 169.942047,162.268112 
	C169.779053,162.653915 169.616074,163.039719 169.453079,163.425507 
	C170.016220,164.165756 170.579346,164.905991 170.681747,165.040588 
	C168.598602,165.923965 164.837311,166.841019 164.863892,167.630615 
	C164.955750,170.359924 164.350266,174.191803 168.883896,174.690796 
	C167.691620,181.525757 167.192307,188.303024 163.388184,192.438858 
	C155.922012,189.822891 149.649139,187.384232 143.199188,185.577789 
	C141.977829,185.235718 139.819412,187.166306 138.505371,188.465088 
	C136.198929,190.744751 134.210999,193.346680 132.089676,195.813629 
	C131.589294,195.483810 131.088913,195.154007 130.588531,194.824203 
	C132.568466,188.706100 134.548401,182.587997 136.514099,176.513885 
	C138.437363,176.783997 139.684631,176.959183 141.350021,177.193085 
	C142.300186,173.162674 143.191742,169.380936 144.138046,165.366913 
	C135.633255,163.906021 127.639481,163.872726 118.735001,166.552567 
	C121.056496,169.431381 122.748436,171.529510 124.608612,173.836258 
	C123.471954,174.322266 122.624840,174.684464 121.777725,175.046677 
	C122.220718,175.191025 122.663719,175.335373 123.106712,175.479736 
	C122.243790,187.651352 116.487450,198.530594 113.647888,210.180161 
	C112.835121,210.109268 112.022354,210.038391 111.209587,209.967499 
	C111.169075,206.744370 111.204453,203.517624 111.051361,200.299850 
	C110.988525,198.979218 110.965660,197.098129 110.153824,196.472961 
	C107.347450,194.311996 107.962578,192.458939 109.842590,190.178101 
	C110.434296,189.460251 110.425262,188.247208 110.785263,186.911850 
	C106.874832,188.386383 105.342506,187.654037 106.447014,185.340790 
	C108.704567,180.612671 105.144897,178.770401 102.887833,176.140427 
	C102.887833,176.140427 102.880524,176.130356 102.915848,175.386353 
	C101.775581,173.481674 100.635315,171.576981 99.495049,169.672302 
	C99.093262,169.841003 98.691483,170.009705 98.289696,170.178406 
	C97.896820,171.920334 97.503944,173.662277 97.084854,175.734512 
	C97.084854,175.734512 96.830902,175.947342 96.149162,176.065552 
	C95.099495,177.045059 93.733459,177.844650 93.056046,179.035843 
	C90.413612,183.682434 87.958214,188.436920 85.495720,193.183701 
	C84.061371,195.948578 82.945633,198.901550 81.289627,201.518753 
	C80.495377,202.774033 78.866852,203.927551 77.445938,204.183990 
	C76.713768,204.316132 74.891403,202.453384 74.783966,201.370743 
	C73.789864,191.354034 72.199028,181.208527 78.537018,172.099335 
	C80.198112,169.711945 79.353264,168.071716 76.901665,167.098724 
	C76.901665,167.098724 76.994102,167.290970 76.405121,166.807678 
	C75.017395,166.371017 73.262077,166.327866 72.303185,165.432114 
	C67.121849,160.592010 62.273880,166.128784 57.269363,165.781921 
	C56.999214,165.763214 56.632622,167.135971 55.977695,167.768692 
	C55.977695,167.768692 56.067810,167.434875 56.101696,168.209824 
	C56.689587,171.109528 57.277477,174.009232 57.865368,176.908936 
	C57.449596,177.008041 57.033825,177.107162 56.618057,177.206268 
	C57.750080,178.913391 59.448219,180.479477 59.914795,182.352386 
	C61.798164,189.912537 63.486530,197.547623 60.747604,205.332291 
	C60.464855,206.135925 60.954468,207.215240 61.098999,208.164612 
	C62.061424,214.486450 63.045589,220.805023 63.982185,227.130661 
	C64.296066,229.250580 64.050079,231.572403 64.844345,233.474396 
	C66.048782,236.358612 67.909668,239.678696 71.726410,238.349258 
	C74.269257,237.463562 80.441048,238.431534 77.040161,232.048996 
	C76.919113,231.821823 77.588020,231.263214 77.688255,230.814301 
	C78.429825,227.493027 79.120499,224.160385 79.845749,220.904861 
	C79.845749,220.904861 79.773201,220.882675 80.366714,220.759399 
	C81.907425,221.188232 83.448135,221.617065 83.809410,221.717621 
	C85.079231,217.708359 86.251038,214.139938 87.334946,210.545013 
	C88.210365,207.641571 88.979813,204.706177 89.793289,201.761246 
	C89.793289,201.761246 89.781441,201.739426 90.444672,201.632950 
	C92.372391,199.965561 94.300110,198.298172 96.965561,195.992661 
	C97.408241,198.279709 97.815224,199.775040 97.970551,201.296051 
	C98.482506,206.309219 98.570229,211.390976 99.450027,216.334412 
	C100.388374,221.606842 101.848816,226.811630 103.431351,231.937897 
	C105.548500,238.795914 108.782036,239.489548 114.498878,234.978592 
	C115.948730,233.834564 118.136528,233.625748 119.999634,232.999771 
	C119.999634,232.999771 120.013016,233.012817 120.212234,233.659470 
	C121.379715,234.305008 122.485275,235.314362 123.726662,235.525604 
	C127.010254,236.084396 130.363251,236.221420 133.667191,236.680542 
	C135.323059,236.910645 136.949921,237.871902 138.558319,237.799637 
	C141.024689,237.688812 143.463806,236.971252 146.450348,236.410568 
	C149.735748,233.784424 153.585327,230.707291 156.669357,228.242111 
	C158.517761,229.727142 160.655716,231.444794 162.919983,233.870178 
	C164.176773,237.821289 165.904892,240.159729 170.426147,237.094131 
	C171.892853,236.099625 174.232407,236.452347 176.136993,236.028366 
	C178.432632,235.517334 180.762497,235.020737 182.941940,234.170319 
	C184.769760,233.457062 186.302094,231.726013 188.144440,231.368210 
	C191.346786,230.746307 192.185623,228.903748 192.791855,226.116653 
	C195.100327,226.614395 196.282257,225.896729 197.827301,223.740067 
	C199.821960,220.955795 203.233780,219.186813 206.035538,217.882599 
	C205.056808,222.311325 204.078079,226.740051 203.108459,231.096436 
	C203.108459,231.096436 203.180511,231.107620 202.535782,231.286148 
	C200.219131,233.328064 201.614883,234.694901 203.651840,234.953751 
	C207.186829,235.403000 210.808731,235.478836 214.371063,235.285400 
	C216.493805,235.170135 218.572464,234.242722 220.812119,233.867111 
	C220.812119,233.867111 220.639297,233.709274 221.231049,233.522903 
	C221.325500,232.433624 221.853745,230.609055 221.447067,230.369141 
	C217.504639,228.043106 217.904495,224.320129 217.922852,220.647003 
	C217.955292,214.156586 217.906677,207.665680 217.958008,201.175507 
	C217.968613,199.833664 218.267731,198.494110 218.433868,197.153503 
	C218.872818,197.061569 219.311783,196.969620 219.750732,196.877686 
	C223.142883,203.092545 226.479980,209.338623 229.970963,215.497467 
	C230.720779,216.820312 232.026993,217.827789 233.013840,218.981339 
	C233.013840,218.981339 233.040939,218.924408 232.996155,219.723663 
	C234.434250,221.775375 235.454773,224.713501 237.422668,225.640579 
	C239.582901,226.658234 243.085403,226.829437 243.908646,222.927689 
	C243.908646,222.927689 243.796967,222.953720 244.263733,222.537949 
	C244.462814,221.960052 244.661896,221.382156 244.884811,220.917236 
	C244.884811,220.917236 244.771408,220.939041 245.384857,220.608032 
	C248.548340,213.869247 251.711823,207.130447 254.805008,200.243027 
	C254.805008,200.243027 254.951904,200.169205 255.324142,199.713730 
	C255.458893,199.349106 255.593658,198.984482 255.711761,198.764435 
	C255.711761,198.764435 255.567902,198.742493 256.262848,198.549576 
	C257.661743,197.767853 259.060608,196.986145 261.220917,195.778915 
	C261.545349,198.000687 261.936646,199.538986 261.964539,201.083847 
	C262.051575,205.903656 261.904297,210.728485 262.029816,215.546631 
	C262.170441,220.943237 262.030121,226.114227 258.016541,230.477081 
	C256.309601,232.332550 257.002869,234.688095 259.664642,234.815887 
	C265.912659,235.115875 272.205414,235.190308 278.438782,234.759384 
	C281.108612,234.574814 282.055969,232.715256 278.960541,231.020660 
	C278.960541,231.020660 278.965027,231.086075 278.779419,230.510956 
	C278.204773,229.980591 277.630157,229.450241 276.784790,228.442322 
	C276.511536,227.966263 276.238312,227.490189 275.981873,226.075150 
	C275.978912,221.261581 276.080322,216.445114 275.947601,211.635132 
	C275.765411,205.033798 275.405670,198.437363 275.116547,190.935318 
	C275.078552,185.942551 275.040558,180.949768 275.153534,175.744598 
	C275.246948,175.480606 275.199463,175.241043 275.017242,174.218430 
	C274.989929,173.140854 274.962616,172.063263 275.566101,170.736359 
	C280.516296,170.061111 282.058990,172.728653 282.051208,177.156342 
	C282.022278,193.646561 282.015717,210.137115 282.091431,226.627106 
	C282.118500,232.525665 283.850830,234.867874 289.660583,234.882339 
	C299.549377,234.906982 309.462982,234.409393 319.314026,233.540451 
	C321.779205,233.323013 324.045837,230.854950 326.461334,229.392731 
	C326.461334,229.392731 326.495697,229.447067 327.048523,229.371933 
	C327.355469,229.170105 327.662445,228.968277 327.913116,228.888290 
	C327.913116,228.888290 327.792114,228.830231 328.579559,228.883408 
	C331.572693,228.322906 334.851624,228.121140 334.942657,223.933228 
	C334.942657,223.933228 334.857819,223.892578 335.598328,223.893082 
	C340.370239,222.723007 341.356415,218.936523 341.879700,214.894562 
	C341.879700,214.894562 341.806610,214.904251 342.498718,214.709351 
	C347.256012,209.852737 346.809143,203.500122 346.765656,197.589203 
	C346.733612,193.238144 347.419769,188.147705 342.754852,184.828384 
	C342.754852,184.828384 342.813232,184.637650 342.867462,183.818207 
	C341.803375,182.255386 340.739319,180.692551 339.148682,178.760056 
	C338.421143,177.509567 337.693604,176.259079 336.972015,175.028229 
	C336.972015,175.028229 336.987152,175.040588 337.826965,175.011246 
	C340.486938,174.289215 343.146942,173.567184 346.240234,172.404114 
	C346.122314,171.279312 346.004364,170.154526 345.951965,169.015518 
	C345.951965,169.015518 345.954041,169.082565 345.691132,168.672897 
z"/>
<path fill="#3A5BF5" opacity="1.000000" stroke="none" 
	d="
M119.985229,232.987183 
	C118.136528,233.625748 115.948730,233.834564 114.498878,234.978592 
	C108.782036,239.489548 105.548500,238.795914 103.431351,231.937897 
	C101.848816,226.811630 100.388374,221.606842 99.450027,216.334412 
	C98.570229,211.390976 98.482506,206.309219 97.970551,201.296051 
	C97.815224,199.775040 97.408241,198.279709 96.965561,195.992661 
	C94.300110,198.298172 92.372391,199.965561 90.175644,201.340881 
	C91.968422,197.244949 94.030212,193.441101 96.092003,189.637253 
	C96.560417,189.752991 97.028824,189.868729 97.497231,189.984451 
	C97.984451,191.845062 98.559746,193.687668 98.944466,195.569229 
	C101.275406,206.969086 103.439301,218.405579 105.987564,229.756058 
	C106.407608,231.626984 108.449326,233.133850 109.741585,234.808960 
	C111.442459,233.236145 113.964790,231.976425 114.703949,230.037064 
	C118.154678,220.983353 120.590485,211.519577 124.377060,202.622894 
	C129.360428,190.914383 131.779282,178.067108 139.534164,167.693420 
	C133.787735,167.693420 127.992699,167.693420 121.149223,167.693420 
	C128.283569,172.357010 128.285782,172.357742 125.897491,179.572159 
	C122.187950,190.777634 118.494843,201.988647 114.742729,213.179871 
	C114.163864,214.906418 113.307564,216.539963 112.579567,218.216507 
	C112.094376,218.146393 111.609184,218.076279 111.123985,218.006165 
	C108.372261,204.057068 105.620529,190.107956 102.868797,176.158844 
	C105.144897,178.770401 108.704567,180.612671 106.447014,185.340790 
	C105.342506,187.654037 106.874832,188.386383 110.785263,186.911850 
	C110.425262,188.247208 110.434296,189.460251 109.842590,190.178101 
	C107.962578,192.458939 107.347450,194.311996 110.153824,196.472961 
	C110.965660,197.098129 110.988525,198.979218 111.051361,200.299850 
	C111.204453,203.517624 111.169075,206.744370 111.209587,209.967499 
	C112.022354,210.038391 112.835121,210.109268 113.647888,210.180161 
	C116.487450,198.530594 122.243790,187.651352 123.106712,175.479736 
	C122.663719,175.335373 122.220718,175.191025 121.777725,175.046677 
	C122.624840,174.684464 123.471954,174.322266 124.608612,173.836258 
	C122.748436,171.529510 121.056496,169.431381 118.735001,166.552567 
	C127.639481,163.872726 135.633255,163.906021 144.138046,165.366913 
	C143.191742,169.380936 142.300186,173.162674 141.350021,177.193085 
	C139.684631,176.959183 138.437363,176.783997 136.514099,176.513885 
	C134.548401,182.587997 132.568466,188.706100 130.588531,194.824203 
	C131.088913,195.154007 131.589294,195.483810 132.089676,195.813629 
	C134.210999,193.346680 136.198929,190.744751 138.505371,188.465088 
	C139.819412,187.166306 141.977829,185.235718 143.199188,185.577789 
	C149.649139,187.384232 155.922012,189.822891 163.388184,192.438858 
	C167.192307,188.303024 167.691620,181.525757 168.883896,174.690796 
	C164.350266,174.191803 164.955750,170.359924 164.863892,167.630615 
	C164.837311,166.841019 168.598602,165.923965 170.681747,165.040588 
	C170.579346,164.905991 170.016220,164.165756 169.453079,163.425507 
	C169.616074,163.039719 169.779053,162.653915 169.942047,162.268112 
	C173.955673,163.180984 177.969299,164.093842 183.036545,165.246338 
	C182.063187,170.072739 180.713699,174.951538 180.204102,179.916550 
	C179.853943,183.328293 180.669739,186.859711 181.014145,190.925369 
	C187.898941,188.760361 193.517731,186.993469 199.511139,185.108780 
	C200.001724,186.498337 200.455841,187.784592 200.944794,189.169525 
	C204.603607,189.619217 206.146942,187.936249 205.995407,184.363556 
	C205.932022,182.868790 206.002747,181.368347 206.204605,179.789093 
	C206.269012,188.468246 206.141296,197.228790 205.706482,206.151367 
	C203.396774,208.459869 203.468887,210.377823 206.036865,212.435364 
	C206.042145,214.226166 206.038742,215.603409 206.035339,216.980621 
	C203.233780,219.186813 199.821960,220.955795 197.827301,223.740067 
	C196.282257,225.896729 195.100327,226.614395 192.305267,225.971008 
	C191.818680,225.825378 191.533295,225.552765 191.713165,225.271881 
	C198.290985,218.150589 203.353119,210.667145 202.993774,200.764603 
	C202.703156,192.756226 197.396729,188.468170 189.650223,190.257690 
	C186.569763,190.969315 183.721329,192.685410 180.767273,193.944199 
	C180.899445,194.386139 181.031601,194.828064 181.163773,195.269989 
	C183.007019,194.947723 184.869156,194.707443 186.690079,194.288193 
	C192.771729,192.887924 196.071808,195.255234 195.335892,201.377472 
	C193.792740,214.215668 187.830048,224.553223 176.688354,231.583252 
	C173.708954,233.463181 170.911545,233.721542 168.279053,230.421082 
	C167.865814,229.641205 167.586075,229.219559 167.339844,228.647659 
	C167.338928,228.275543 167.220703,228.115570 167.019653,227.568542 
	C165.896210,216.114700 172.159775,207.837967 177.003403,198.591660 
	C175.426178,199.534805 173.848953,200.477966 171.834396,201.682632 
	C172.189240,200.086731 172.398544,198.816116 172.756546,197.588913 
	C175.080734,189.621643 177.644699,181.714951 179.630157,173.665115 
	C180.097549,171.770111 178.955917,167.715179 178.029312,167.546982 
	C174.173752,166.847076 170.117523,167.252640 166.134903,167.252640 
	C172.070984,171.075180 171.324173,175.835724 169.930267,180.979233 
	C167.933609,188.346909 165.957870,195.735275 164.412308,203.205658 
	C163.061646,209.734116 160.647293,215.531067 155.391174,220.338654 
	C152.379990,222.874695 149.895065,225.596970 146.852417,227.352798 
	C142.832489,229.672577 138.231491,231.155258 133.702209,228.735153 
	C129.313889,226.390396 131.377441,222.002762 131.119690,218.401031 
	C131.051529,217.448624 131.311737,216.472702 131.300842,216.568832 
	C138.915436,213.841248 145.872025,211.349350 152.835510,209.240479 
	C152.238831,211.801239 151.635254,213.978989 151.031677,216.156723 
	C150.749588,215.634674 150.467514,215.112610 150.185440,214.590561 
	C145.492432,215.340668 140.576660,215.504959 136.227356,217.158875 
	C134.706512,217.737228 134.580734,221.984192 133.817886,224.555847 
	C135.822037,224.182495 137.866776,223.948105 139.813782,223.379150 
	C140.840469,223.079147 141.696594,222.195450 142.755997,221.491379 
	C143.300827,223.091797 143.732346,224.359390 144.621445,226.971115 
	C148.665802,222.675095 151.910110,218.959381 155.452484,215.553711 
	C158.157104,212.953461 158.190659,209.831314 155.202179,206.729950 
	C156.059494,205.305573 156.781097,204.212646 157.502670,203.119675 
	C161.482849,197.091080 159.787155,191.938507 152.561600,191.035477 
	C148.252075,190.496887 142.937683,191.344696 139.275375,193.556656 
	C129.182220,199.652725 124.473564,209.640274 123.050331,221.088974 
	C122.163940,228.219238 128.713669,235.935471 135.530640,235.122421 
	C144.252609,234.082153 150.846909,229.906174 156.395416,223.004288 
	C157.572998,222.065506 158.445496,221.275070 159.407791,220.403259 
	C159.889771,223.537979 160.317764,226.321655 160.846954,229.410690 
	C161.677765,230.764420 162.407425,231.812775 163.052185,232.937531 
	C162.967270,233.013931 162.793671,233.162445 162.793671,233.162445 
	C160.655716,231.444794 158.517761,229.727142 156.669357,228.242111 
	C153.585327,230.707291 149.735748,233.784424 146.450348,236.410568 
	C143.463806,236.971252 141.024689,237.688812 138.558319,237.799637 
	C136.949921,237.871902 135.323059,236.910645 133.667191,236.680542 
	C130.363251,236.221420 127.010254,236.084396 123.726662,235.525604 
	C122.485275,235.314362 121.379715,234.305008 120.467133,233.320145 
	C121.639183,232.292526 122.556343,231.604233 123.473511,230.915955 
	C122.504158,229.699600 121.534805,228.483231 120.565453,227.266876 
	C120.123970,227.487076 119.682495,227.707260 119.241013,227.927460 
	C119.489082,229.614029 119.737160,231.300613 119.985229,232.987183 
M205.248581,191.939560 
	C204.531097,191.868317 203.813599,191.797089 203.096130,191.725845 
	C203.251831,192.268143 203.407532,192.810455 203.563232,193.352753 
	C204.176682,193.053818 204.790146,192.754883 205.248581,191.939560 
M160.703613,204.783615 
	C160.391479,205.366501 160.079330,205.949387 159.767181,206.532272 
	C160.276505,206.675858 160.785828,206.819443 161.295166,206.963028 
	C161.261353,206.281631 161.227539,205.600220 160.703613,204.783615 
M120.390686,221.488937 
	C120.459709,222.281357 120.528725,223.073761 120.597748,223.866180 
	C120.998230,223.769577 121.398712,223.672974 121.799187,223.576370 
	C121.454117,222.769043 121.109039,221.961716 120.390686,221.488937 
M142.862427,188.549545 
	C142.547150,188.737991 142.231873,188.926437 141.916580,189.114868 
	C142.008255,189.230133 142.165344,189.454468 142.181931,189.444504 
	C142.495316,189.256592 142.792084,189.041000 142.862427,188.549545 
M163.245605,198.145813 
	C163.096695,198.037704 162.947769,197.929611 162.798859,197.821503 
	C162.892609,197.979370 162.986374,198.137222 163.245605,198.145813 
M176.721405,193.078827 
	C176.902924,193.047211 177.084427,193.015594 177.265945,192.983963 
	C177.087509,192.940140 176.909058,192.896317 176.721405,193.078827 
z"/>
<path fill="#F5F9FE" opacity="1.000000" stroke="none" 
	d="
M219.022675,167.111588 
	C219.022675,167.111588 219.127167,167.315796 219.365585,167.673950 
	C221.356812,171.745453 223.109619,175.458786 224.862442,179.172104 
	C224.862442,179.172104 224.892471,179.085495 224.875061,179.442307 
	C226.539291,182.913879 228.220932,186.028625 229.902573,189.143387 
	C229.902573,189.143387 229.916702,189.073486 229.925568,189.412979 
	C230.549026,190.719482 231.163620,191.686493 231.778229,192.653503 
	C231.778229,192.653503 231.738663,192.808990 231.861603,193.190598 
	C233.099487,195.525467 234.214432,197.478745 235.329376,199.432007 
	C235.329376,199.432007 235.263138,199.593811 235.439484,199.961166 
	C236.614868,202.231964 237.593033,204.146713 238.617462,206.036377 
	C240.476883,209.466232 242.427185,209.521423 244.192856,206.014267 
	C246.864990,200.706589 249.423508,195.341705 252.030273,190.001129 
	C252.030273,190.001129 251.988068,189.997574 252.252197,189.846268 
	C252.696075,189.126755 252.875824,188.558548 253.055573,187.990326 
	C253.055557,187.990326 252.996506,188.002838 253.283310,187.811157 
	C255.868393,182.641769 258.247131,177.699280 260.444458,172.677414 
	C263.140381,166.515915 267.325317,165.116287 273.661743,168.790894 
	C273.886078,180.409821 274.159027,191.652115 274.366486,203.342224 
	C274.567291,211.526794 274.833557,219.263550 275.086182,227.320374 
	C275.704926,228.454025 276.337341,229.267609 277.118225,230.343567 
	C277.832794,230.766006 278.398926,230.926041 278.965027,231.086075 
	C278.965027,231.086075 278.960541,231.020660 279.109802,231.336456 
	C278.215607,232.348877 277.198669,233.595047 276.124023,233.646942 
	C271.490479,233.870712 266.838898,233.800491 262.196411,233.708817 
	C260.924438,233.683701 259.661346,233.212234 258.394165,232.945587 
	C262.832520,230.636780 263.192993,227.201172 263.146851,223.305496 
	C263.021179,212.691406 263.118652,202.074829 263.089661,191.459320 
	C263.085663,189.988602 262.867004,188.518494 262.747711,187.048096 
	C262.236969,186.971069 261.726227,186.894043 261.215485,186.817017 
	C259.332947,190.792175 257.450439,194.767334 255.567902,198.742493 
	C255.567902,198.742493 255.711761,198.764435 255.474091,198.878006 
	C255.141571,199.384125 255.046738,199.776657 254.951904,200.169205 
	C254.951904,200.169205 254.805008,200.243027 254.548431,200.551376 
	C251.118378,207.552826 247.944885,214.245941 244.771408,220.939041 
	C244.771408,220.939041 244.884811,220.917236 244.609070,221.037720 
	C244.154556,221.756714 243.975754,222.355209 243.796967,222.953720 
	C243.796967,222.953720 243.908646,222.927689 243.595901,223.087708 
	C238.436203,226.376923 237.582565,226.016602 233.040939,218.924408 
	C233.040939,218.924408 233.013840,218.981339 233.006622,218.621094 
	C227.941803,208.601547 222.884201,198.942230 217.826599,189.282898 
	C217.124985,189.467056 216.423370,189.651215 215.721756,189.835373 
	C215.721756,199.200653 215.644043,208.566849 215.751923,217.930878 
	C215.813293,223.257584 214.815277,229.069580 220.898224,232.316544 
	C221.023911,232.383636 220.734863,233.227692 220.639313,233.709274 
	C220.639297,233.709274 220.812119,233.867111 220.299973,233.772339 
	C215.019058,233.694565 210.248749,233.784363 205.482468,233.683502 
	C204.081345,233.653854 201.599579,234.042603 203.180511,231.107620 
	C203.180511,231.107620 203.108459,231.096436 203.475861,231.106140 
	C207.661270,229.693085 207.557022,226.314865 207.588135,223.189194 
	C207.730560,208.873901 207.797226,194.557541 207.808243,180.241486 
	C207.811676,175.778763 209.057617,170.891373 203.252045,168.029739 
	C203.594376,167.723694 203.936707,167.417633 204.279037,167.111588 
	C209.193573,167.111588 214.108124,167.111588 219.022675,167.111588 
z"/>
<path fill="#F4F8FE" opacity="1.000000" stroke="none" 
	d="
M336.966095,175.008575 
	C337.693604,176.259079 338.421143,177.509567 339.515808,179.281082 
	C340.859680,181.413956 341.836456,183.025803 342.813232,184.637650 
	C342.813232,184.637650 342.754852,184.828384 342.862305,185.285873 
	C346.502625,195.620041 345.801300,205.327835 341.806610,214.904251 
	C341.806610,214.904251 341.879700,214.894562 341.600250,215.056915 
	C339.166473,218.110367 337.012146,221.001465 334.857819,223.892578 
	C334.857819,223.892578 334.942657,223.933228 334.595642,223.999207 
	C332.096436,225.653534 329.944275,227.241882 327.792114,228.830231 
	C327.792114,228.830231 327.913116,228.888290 327.656494,228.843048 
	C327.098511,229.014221 326.797119,229.230652 326.495697,229.447083 
	C326.495697,229.447067 326.461334,229.392731 326.074188,229.506805 
	C314.640900,234.463089 302.928802,233.810623 291.297791,233.749847 
	C285.425446,233.719162 284.017120,232.262268 283.998840,226.312363 
	C283.950806,210.672424 283.961487,195.032303 283.906982,179.392395 
	C283.892731,175.293045 284.457703,170.880066 279.274231,169.008591 
	C279.052277,168.928436 279.202454,167.817657 279.179260,167.186996 
	C279.179260,167.186996 279.117889,167.132523 279.576294,167.171707 
	C290.805145,167.182846 301.578125,166.999588 312.345245,167.174896 
	C321.274994,167.320297 329.596741,169.765747 336.966095,175.008575 
M294.771912,214.450378 
	C294.774780,216.616745 294.832947,218.784775 294.768311,220.949127 
	C294.655090,224.740677 296.513428,226.743790 300.160553,227.544693 
	C311.642517,230.066162 324.222870,224.909241 329.622040,215.356064 
	C335.657440,204.677292 334.230286,188.880295 326.371338,180.732361 
	C317.452972,171.486038 306.392578,172.712128 294.772430,174.107803 
	C294.772430,187.533691 294.772430,200.498764 294.771912,214.450378 
z"/>
<path fill="#F3F8FE" opacity="1.000000" stroke="none" 
	d="
M102.878311,176.149628 
	C105.620529,190.107956 108.372261,204.057068 111.123985,218.006165 
	C111.609184,218.076279 112.094376,218.146393 112.579567,218.216507 
	C113.307564,216.539963 114.163864,214.906418 114.742729,213.179871 
	C118.494843,201.988647 122.187950,190.777634 125.897491,179.572159 
	C128.285782,172.357742 128.283569,172.357010 121.149223,167.693420 
	C127.992699,167.693420 133.787735,167.693420 139.534164,167.693420 
	C131.779282,178.067108 129.360428,190.914383 124.377060,202.622894 
	C120.590485,211.519577 118.154678,220.983353 114.703949,230.037064 
	C113.964790,231.976425 111.442459,233.236145 109.741585,234.808960 
	C108.449326,233.133850 106.407608,231.626984 105.987564,229.756058 
	C103.439301,218.405579 101.275406,206.969086 98.944466,195.569229 
	C98.559746,193.687668 97.984451,191.845062 97.497231,189.984451 
	C97.028824,189.868729 96.560417,189.752991 96.092003,189.637253 
	C94.030212,193.441101 91.968422,197.244949 89.844032,201.394104 
	C89.781441,201.739426 89.793289,201.761246 89.526733,201.991486 
	C86.097847,208.442032 82.935524,214.662354 79.773201,220.882675 
	C79.773201,220.882675 79.845749,220.904861 79.555588,221.067383 
	C77.386032,224.733063 75.759453,228.410797 73.514900,231.661865 
	C72.475601,233.167206 70.231888,233.841034 68.534218,234.891846 
	C67.674919,233.270706 66.182755,231.697708 66.055145,230.020889 
	C64.898537,214.822601 63.983749,199.605942 62.990837,184.395142 
	C62.571667,177.973755 62.374580,171.455704 56.067810,167.434875 
	C56.067810,167.434875 55.977695,167.768692 56.540337,167.576416 
	C63.733349,167.353088 70.363724,167.322037 76.994102,167.290970 
	C76.994102,167.290970 76.901665,167.098724 76.811447,167.496490 
	C74.651939,170.338593 71.223480,171.463547 71.619888,175.999619 
	C72.704323,188.408844 73.119560,200.875793 73.898003,213.313751 
	C73.973785,214.524536 74.731071,215.692657 75.668732,218.218735 
	C83.188156,203.198700 90.009537,189.573029 96.830902,175.947342 
	C96.830902,175.947342 97.084854,175.734512 97.404617,175.451294 
	C99.443092,175.488815 101.161804,175.809586 102.880524,176.130356 
	C102.880524,176.130356 102.887833,176.140427 102.878311,176.149628 
z"/>
<path fill="#4C64DE" opacity="1.000000" stroke="none" 
	d="
M278.824402,167.157959 
	C279.202454,167.817657 279.052277,168.928436 279.274231,169.008591 
	C284.457703,170.880066 283.892731,175.293045 283.906982,179.392395 
	C283.961487,195.032303 283.950806,210.672424 283.998840,226.312363 
	C284.017120,232.262268 285.425446,233.719162 291.297791,233.749847 
	C302.928802,233.810623 314.640900,234.463089 326.045349,229.521072 
	C324.045837,230.854950 321.779205,233.323013 319.314026,233.540451 
	C309.462982,234.409393 299.549377,234.906982 289.660583,234.882339 
	C283.850830,234.867874 282.118500,232.525665 282.091431,226.627106 
	C282.015717,210.137115 282.022278,193.646561 282.051208,177.156342 
	C282.058990,172.728653 280.516296,170.061111 275.098145,170.669647 
	C274.323608,169.873398 274.016998,169.143845 273.710388,168.414291 
	C267.325317,165.116287 263.140381,166.515915 260.444458,172.677414 
	C258.247131,177.699280 255.868393,182.641769 253.299637,187.836548 
	C255.654449,181.159973 257.945740,174.103867 261.159454,167.496414 
	C261.886993,166.000519 265.826416,165.511475 268.275024,165.542282 
	C271.679321,165.585159 275.071930,166.555542 278.824402,167.157959 
z"/>
<path fill="#3A5BF5" opacity="1.000000" stroke="none" 
	d="
M96.490036,176.006439 
	C90.009537,189.573029 83.188156,203.198700 75.668732,218.218735 
	C74.731071,215.692657 73.973785,214.524536 73.898003,213.313751 
	C73.119560,200.875793 72.704323,188.408844 71.619888,175.999619 
	C71.223480,171.463547 74.651939,170.338593 76.715729,167.543549 
	C79.353264,168.071716 80.198112,169.711945 78.537018,172.099335 
	C72.199028,181.208527 73.789864,191.354034 74.783966,201.370743 
	C74.891403,202.453384 76.713768,204.316132 77.445938,204.183990 
	C78.866852,203.927551 80.495377,202.774033 81.289627,201.518753 
	C82.945633,198.901550 84.061371,195.948578 85.495720,193.183701 
	C87.958214,188.436920 90.413612,183.682434 93.056046,179.035843 
	C93.733459,177.844650 95.099495,177.045059 96.490036,176.006439 
z"/>
<path fill="#3A5BF5" opacity="1.000000" stroke="none" 
	d="
M56.084755,167.822357 
	C62.374580,171.455704 62.571667,177.973755 62.990837,184.395142 
	C63.983749,199.605942 64.898537,214.822601 66.055145,230.020889 
	C66.182755,231.697708 67.674919,233.270706 68.534218,234.891846 
	C70.231888,233.841034 72.475601,233.167206 73.514900,231.661865 
	C75.759453,228.410797 77.386032,224.733063 79.546295,221.030609 
	C79.120499,224.160385 78.429825,227.493027 77.688255,230.814301 
	C77.588020,231.263214 76.919113,231.821823 77.040161,232.048996 
	C80.441048,238.431534 74.269257,237.463562 71.726410,238.349258 
	C67.909668,239.678696 66.048782,236.358612 64.844345,233.474396 
	C64.050079,231.572403 64.296066,229.250580 63.982185,227.130661 
	C63.045589,220.805023 62.061424,214.486450 61.098999,208.164612 
	C60.954468,207.215240 60.464855,206.135925 60.747604,205.332291 
	C63.486530,197.547623 61.798164,189.912537 59.914795,182.352386 
	C59.448219,180.479477 57.750080,178.913391 56.618057,177.206268 
	C57.033825,177.107162 57.449596,177.008041 57.865368,176.908936 
	C57.277477,174.009232 56.689587,171.109528 56.084755,167.822357 
z"/>
<path fill="#4C64DE" opacity="1.000000" stroke="none" 
	d="
M220.935181,233.616089 
	C220.734863,233.227692 221.023911,232.383636 220.898224,232.316544 
	C214.815277,229.069580 215.813293,223.257584 215.751923,217.930878 
	C215.644043,208.566849 215.721756,199.200653 215.721756,189.835373 
	C216.423370,189.651215 217.124985,189.467056 217.826599,189.282898 
	C222.884201,198.942230 227.941803,208.601547 233.038147,218.620712 
	C232.026993,217.827789 230.720779,216.820312 229.970963,215.497467 
	C226.479980,209.338623 223.142883,203.092545 219.750732,196.877686 
	C219.311783,196.969620 218.872818,197.061569 218.433868,197.153503 
	C218.267731,198.494110 217.968613,199.833664 217.958008,201.175507 
	C217.906677,207.665680 217.955292,214.156586 217.922852,220.647003 
	C217.904495,224.320129 217.504639,228.043106 221.447067,230.369141 
	C221.853745,230.609055 221.325500,232.433624 220.935181,233.616089 
z"/>
<path fill="#4C64DE" opacity="1.000000" stroke="none" 
	d="
M255.915375,198.646027 
	C257.450439,194.767334 259.332947,190.792175 261.215485,186.817017 
	C261.726227,186.894043 262.236969,186.971069 262.747711,187.048096 
	C262.867004,188.518494 263.085663,189.988602 263.089661,191.459320 
	C263.118652,202.074829 263.021179,212.691406 263.146851,223.305496 
	C263.192993,227.201172 262.832520,230.636780 258.394165,232.945587 
	C259.661346,233.212234 260.924438,233.683701 262.196411,233.708817 
	C266.838898,233.800491 271.490479,233.870712 276.124023,233.646942 
	C277.198669,233.595047 278.215607,232.348877 279.079224,231.348236 
	C282.055969,232.715256 281.108612,234.574814 278.438782,234.759384 
	C272.205414,235.190308 265.912659,235.115875 259.664642,234.815887 
	C257.002869,234.688095 256.309601,232.332550 258.016541,230.477081 
	C262.030121,226.114227 262.170441,220.943237 262.029816,215.546631 
	C261.904297,210.728485 262.051575,205.903656 261.964539,201.083847 
	C261.936646,199.538986 261.545349,198.000687 261.220917,195.778915 
	C259.060608,196.986145 257.661743,197.767853 255.915375,198.646027 
z"/>
<path fill="#4C64DE" opacity="1.000000" stroke="none" 
	d="
M218.681305,166.870941 
	C214.108124,167.111588 209.193573,167.111588 204.279037,167.111588 
	C203.936707,167.417633 203.594376,167.723694 203.252045,168.029739 
	C209.057617,170.891373 207.811676,175.778763 207.808243,180.241486 
	C207.797226,194.557541 207.730560,208.873901 207.588135,223.189194 
	C207.557022,226.314865 207.661270,229.693085 203.471313,231.142319 
	C204.078079,226.740051 205.056808,222.311325 206.035446,217.431610 
	C206.038742,215.603409 206.042145,214.226166 206.043182,212.003784 
	C206.031738,209.435532 206.022659,207.712433 206.013580,205.989334 
	C206.141296,197.228790 206.269012,188.468246 206.213165,179.337524 
	C205.163467,176.116150 204.568863,173.142731 203.355820,170.447678 
	C202.109390,167.678452 202.730118,166.162018 205.622345,166.125153 
	C209.858704,166.071121 214.100479,166.441025 218.681305,166.870941 
z"/>
<path fill="#4C64DE" opacity="1.000000" stroke="none" 
	d="
M336.969055,175.018402 
	C329.596741,169.765747 321.274994,167.320297 312.345245,167.174896 
	C301.578125,166.999588 290.805145,167.182846 279.575806,167.212738 
	C281.007324,166.800339 282.892487,166.059296 284.789032,166.028763 
	C292.751404,165.900528 300.726776,166.233688 308.679169,165.925964 
	C317.812805,165.572540 326.523621,166.889450 334.863770,171.222305 
	C337.351410,167.579407 339.768433,163.905167 344.459229,167.658966 
	C338.639496,167.088516 338.269226,171.530975 336.987152,175.040588 
	C336.987152,175.040588 336.972015,175.028229 336.969055,175.018402 
z"/>
<path fill="#3A5BF5" opacity="1.000000" stroke="none" 
	d="
M191.961746,225.961273 
	C192.185623,228.903748 191.346786,230.746307 188.144440,231.368210 
	C186.302094,231.726013 184.769760,233.457062 182.941940,234.170319 
	C180.762497,235.020737 178.432632,235.517334 176.136993,236.028366 
	C174.232407,236.452347 171.892853,236.099625 170.426147,237.094131 
	C165.904892,240.159729 164.176773,237.821289 162.856827,233.516312 
	C162.793671,233.162445 162.967270,233.013931 163.416199,233.044373 
	C168.185547,235.655975 172.627472,235.860168 177.066681,233.509583 
	C181.929794,230.934540 186.714447,228.211380 191.533295,225.552765 
	C191.533295,225.552765 191.818680,225.825378 191.961746,225.961273 
z"/>
<path fill="#4C64DE" opacity="1.000000" stroke="none" 
	d="
M251.703720,190.102341 
	C249.423508,195.341705 246.864990,200.706589 244.192856,206.014267 
	C242.427185,209.521423 240.476883,209.466232 238.617462,206.036377 
	C237.593033,204.146713 236.614868,202.231964 235.517670,200.000305 
	C237.296722,201.332352 239.173965,202.992630 241.788025,205.304596 
	C242.615524,204.227020 243.927048,202.782059 244.936874,201.150391 
	C247.164307,197.551376 249.239716,193.858261 251.703720,190.102341 
z"/>
<path fill="#4C64DE" opacity="1.000000" stroke="none" 
	d="
M342.152649,214.806793 
	C345.801300,205.327835 346.502625,195.620041 342.948425,185.336151 
	C347.419769,188.147705 346.733612,193.238144 346.765656,197.589203 
	C346.809143,203.500122 347.256012,209.852737 342.152649,214.806793 
z"/>
<path fill="#3A5BF5" opacity="1.000000" stroke="none" 
	d="
M80.069962,220.821045 
	C82.935524,214.662354 86.097847,208.442032 89.528229,202.003326 
	C88.979813,204.706177 88.210365,207.641571 87.334946,210.545013 
	C86.251038,214.139938 85.079231,217.708359 83.809410,221.717621 
	C83.448135,221.617065 81.907425,221.188232 80.069962,220.821045 
z"/>
<path fill="#87A1F3" opacity="1.000000" stroke="none" 
	d="
M337.407043,175.025909 
	C338.269226,171.530975 338.639496,167.088516 344.629059,167.973404 
	C345.040924,167.973114 345.014954,167.990692 345.120300,168.207916 
	C345.387390,168.734100 345.630188,168.953232 345.954041,169.082565 
	C345.954041,169.082565 345.951965,169.015518 345.944977,169.407074 
	C345.894287,170.814133 345.850586,171.829636 345.806915,172.845154 
	C343.146942,173.567184 340.486938,174.289215 337.407043,175.025909 
z"/>
<path fill="#3A5BF5" opacity="1.000000" stroke="none" 
	d="
M76.699615,167.049316 
	C70.363724,167.322037 63.733349,167.353088 56.706947,167.622559 
	C56.632622,167.135971 56.999214,165.763214 57.269363,165.781921 
	C62.273880,166.128784 67.121849,160.592010 72.303185,165.432114 
	C73.262077,166.327866 75.017395,166.371017 76.699615,167.049316 
z"/>
<path fill="#4C64DE" opacity="1.000000" stroke="none" 
	d="
M275.099792,227.000305 
	C274.833557,219.263550 274.567291,211.526794 274.496155,202.970032 
	C274.834869,198.712952 274.978424,195.275894 275.122009,191.838837 
	C275.405670,198.437363 275.765411,205.033798 275.947601,211.635132 
	C276.080322,216.445114 275.978912,221.261581 275.757446,226.540680 
	C275.533020,227.006195 275.099792,227.000305 275.099792,227.000305 
z"/>
<path fill="#4C64DE" opacity="1.000000" stroke="none" 
	d="
M245.078125,220.773529 
	C247.944885,214.245941 251.118378,207.552826 254.583572,200.625687 
	C251.711823,207.130447 248.548340,213.869247 245.078125,220.773529 
z"/>
<path fill="#4C64DE" opacity="1.000000" stroke="none" 
	d="
M202.858154,231.196884 
	C201.599579,234.042603 204.081345,233.653854 205.482468,233.683502 
	C210.248749,233.784363 215.019058,233.694565 220.229385,233.679001 
	C218.572464,234.242722 216.493805,235.170135 214.371063,235.285400 
	C210.808731,235.478836 207.186829,235.403000 203.651840,234.953751 
	C201.614883,234.694901 200.219131,233.328064 202.858154,231.196884 
z"/>
<path fill="#546AD7" opacity="1.000000" stroke="none" 
	d="
M275.119263,191.387085 
	C274.978424,195.275894 274.834869,198.712952 274.561646,202.522217 
	C274.159027,191.652115 273.886078,180.409821 273.661743,168.790894 
	C274.016998,169.143845 274.323608,169.873398 274.782776,170.794312 
	C274.962616,172.063263 274.989929,173.140854 275.007721,174.854706 
	C274.998199,175.490982 275.002594,175.957001 275.002594,175.957001 
	C275.040558,180.949768 275.078552,185.942551 275.119263,191.387085 
z"/>
<path fill="#4C64DE" opacity="1.000000" stroke="none" 
	d="
M224.898773,178.770264 
	C223.109619,175.458786 221.356812,171.745453 219.480179,167.678558 
	C220.838882,169.284760 222.563232,171.113434 223.721130,173.249207 
	C224.528030,174.737534 224.558060,176.647049 224.898773,178.770264 
z"/>
<path fill="#3A5BF5" opacity="1.000000" stroke="none" 
	d="
M102.898186,175.758362 
	C101.161804,175.809586 99.443092,175.488815 97.417725,175.286133 
	C97.503944,173.662277 97.896820,171.920334 98.289696,170.178406 
	C98.691483,170.009705 99.093262,169.841003 99.495049,169.672302 
	C100.635315,171.576981 101.775581,173.481674 102.898186,175.758362 
z"/>
<path fill="#4C64DE" opacity="1.000000" stroke="none" 
	d="
M233.018555,219.324036 
	C237.582565,226.016602 238.436203,226.376923 243.582062,223.032074 
	C243.085403,226.829437 239.582901,226.658234 237.422668,225.640579 
	C235.454773,224.713501 234.434250,221.775375 233.018555,219.324036 
z"/>
<path fill="#4C64DE" opacity="1.000000" stroke="none" 
	d="
M335.228088,223.892822 
	C337.012146,221.001465 339.166473,218.110367 341.594238,215.020538 
	C341.356415,218.936523 340.370239,222.723007 335.228088,223.892822 
z"/>
<path fill="#4C64DE" opacity="1.000000" stroke="none" 
	d="
M229.921082,188.751801 
	C228.220932,186.028625 226.539291,182.913879 224.831451,179.428223 
	C226.516693,182.158295 228.228134,185.259262 229.921082,188.751801 
z"/>
<path fill="#4C64DE" opacity="1.000000" stroke="none" 
	d="
M328.185852,228.856812 
	C329.944275,227.241882 332.096436,225.653534 334.570099,223.959686 
	C334.851624,228.121140 331.572693,228.322906 328.185852,228.856812 
z"/>
<path fill="#4C64DE" opacity="1.000000" stroke="none" 
	d="
M235.399139,199.064148 
	C234.214432,197.478745 233.099487,195.525467 231.938599,193.213074 
	C233.084763,194.801392 234.276840,196.748840 235.399139,199.064148 
z"/>
<path fill="#4C64DE" opacity="1.000000" stroke="none" 
	d="
M342.840332,184.227936 
	C341.836456,183.025803 340.859680,181.413956 339.779053,179.465912 
	C340.739319,180.692551 341.803375,182.255386 342.840332,184.227936 
z"/>
<path fill="#4C64DE" opacity="1.000000" stroke="none" 
	d="
M231.799149,192.271179 
	C231.163620,191.686493 230.549026,190.719482 229.890396,189.407074 
	C230.504288,190.004044 231.162186,190.946442 231.799149,192.271179 
z"/>
<path fill="#546AD7" opacity="1.000000" stroke="none" 
	d="
M275.086182,227.320374 
	C275.099792,227.000305 275.533020,227.006195 275.749054,227.010162 
	C276.238312,227.490189 276.511536,227.966263 276.897949,228.971680 
	C276.997314,229.694427 276.983521,229.887817 276.969727,230.081192 
	C276.337341,229.267609 275.704926,228.454025 275.086182,227.320374 
z"/>
<path fill="#4C64DE" opacity="1.000000" stroke="none" 
	d="
M277.118225,230.343567 
	C276.983521,229.887817 276.997314,229.694427 277.033325,229.210480 
	C277.630157,229.450241 278.204773,229.980591 278.872223,230.798523 
	C278.398926,230.926041 277.832794,230.766006 277.118225,230.343567 
z"/>
<path fill="#4C64DE" opacity="1.000000" stroke="none" 
	d="
M346.023560,172.624634 
	C345.850586,171.829636 345.894287,170.814133 345.912201,169.414169 
	C346.004364,170.154526 346.122314,171.279312 346.023560,172.624634 
z"/>
<path fill="#4C64DE" opacity="1.000000" stroke="none" 
	d="
M244.030334,222.745834 
	C243.975754,222.355209 244.154556,221.756714 244.597168,220.981232 
	C244.661896,221.382156 244.462814,221.960052 244.030334,222.745834 
z"/>
<path fill="#4C64DE" opacity="1.000000" stroke="none" 
	d="
M252.838470,188.193390 
	C252.875824,188.558548 252.696075,189.126755 252.263000,189.864471 
	C252.213577,189.488144 252.417465,188.942307 252.838470,188.193390 
z"/>
<path fill="#4C64DE" opacity="1.000000" stroke="none" 
	d="
M345.822571,168.877731 
	C345.630188,168.953232 345.387390,168.734100 345.123657,168.197510 
	C345.277954,168.172653 345.501129,168.406998 345.822571,168.877731 
z"/>
<path fill="#4C64DE" opacity="1.000000" stroke="none" 
	d="
M275.078064,175.850800 
	C275.002594,175.957001 274.998199,175.490982 275.004669,175.258453 
	C275.199463,175.241043 275.246948,175.480606 275.078064,175.850800 
z"/>
<path fill="#4C64DE" opacity="1.000000" stroke="none" 
	d="
M255.138031,199.941467 
	C255.046738,199.776657 255.141571,199.384125 255.482422,198.805725 
	C255.593658,198.984482 255.458893,199.349106 255.138031,199.941467 
z"/>
<path fill="#4C64DE" opacity="1.000000" stroke="none" 
	d="
M326.772095,229.409515 
	C326.797119,229.230652 327.098511,229.014221 327.684631,228.782104 
	C327.662445,228.968277 327.355469,229.170105 326.772095,229.409515 
z"/>
<path fill="#F6FBFE" opacity="1.000000" stroke="none" 
	d="
M156.090302,223.152634 
	C150.846909,229.906174 144.252609,234.082153 135.530640,235.122421 
	C128.713669,235.935471 122.163940,228.219238 123.050331,221.088974 
	C124.473564,209.640274 129.182220,199.652725 139.275375,193.556656 
	C142.937683,191.344696 148.252075,190.496887 152.561600,191.035477 
	C159.787155,191.938507 161.482849,197.091080 157.502670,203.119675 
	C156.781097,204.212646 156.059494,205.305573 154.956665,206.812683 
	C154.359680,207.489883 154.143921,207.752930 153.670319,208.068405 
	C153.221512,208.400513 153.030518,208.680191 152.863251,208.931427 
	C152.886978,208.903015 152.828598,208.857468 152.828598,208.857468 
	C145.872025,211.349350 138.915436,213.841248 131.300842,216.568832 
	C131.311737,216.472702 131.051529,217.448624 131.119690,218.401031 
	C131.377441,222.002762 129.313889,226.390396 133.702209,228.735153 
	C138.231491,231.155258 142.832489,229.672577 146.852417,227.352798 
	C149.895065,225.596970 152.379990,222.874695 155.463211,220.848221 
	C155.905624,221.793488 155.997971,222.473068 156.090302,223.152634 
M151.938766,199.161774 
	C151.236633,197.273575 151.040909,194.527344 149.693665,193.732193 
	C148.272430,192.893372 144.804718,193.134598 143.875885,194.260681 
	C139.782043,199.223938 136.227936,204.641556 132.696625,210.037460 
	C132.478775,210.370361 134.481049,212.910309 134.868958,212.773605 
	C141.847473,210.314316 149.394455,208.458405 151.938766,199.161774 
z"/>
<path fill="#F3F8FD" opacity="1.000000" stroke="none" 
	d="
M156.395416,223.004288 
	C155.997971,222.473068 155.905624,221.793488 155.741241,220.604340 
	C160.647293,215.531067 163.061646,209.734116 164.412308,203.205658 
	C165.957870,195.735275 167.933609,188.346909 169.930267,180.979233 
	C171.324173,175.835724 172.070984,171.075180 166.134903,167.252640 
	C170.117523,167.252640 174.173752,166.847076 178.029312,167.546982 
	C178.955917,167.715179 180.097549,171.770111 179.630157,173.665115 
	C177.644699,181.714951 175.080734,189.621643 172.756546,197.588913 
	C172.398544,198.816116 172.189240,200.086731 171.834396,201.682632 
	C173.848953,200.477966 175.426178,199.534805 177.003403,198.591660 
	C172.159775,207.837967 165.896210,216.114700 167.053497,227.703430 
	C167.143448,228.464478 167.216766,228.634705 167.306335,228.797928 
	C167.586075,229.219559 167.865814,229.641205 167.959015,230.553040 
	C165.430237,230.397278 163.087997,229.751297 160.745773,229.105316 
	C160.317764,226.321655 159.889771,223.537979 159.407791,220.403259 
	C158.445496,221.275070 157.572998,222.065506 156.395416,223.004288 
z"/>
<path fill="#EFF6FE" opacity="1.000000" stroke="none" 
	d="
M160.846954,229.410690 
	C163.087997,229.751297 165.430237,230.397278 168.092499,230.911285 
	C170.911545,233.721542 173.708954,233.463181 176.688354,231.583252 
	C187.830048,224.553223 193.792740,214.215668 195.335892,201.377472 
	C196.071808,195.255234 192.771729,192.887924 186.690079,194.288193 
	C184.869156,194.707443 183.007019,194.947723 181.163773,195.269989 
	C181.031601,194.828064 180.899445,194.386139 180.767273,193.944199 
	C183.721329,192.685410 186.569763,190.969315 189.650223,190.257690 
	C197.396729,188.468170 202.703156,192.756226 202.993774,200.764603 
	C203.353119,210.667145 198.290985,218.150589 191.713165,225.271896 
	C186.714447,228.211380 181.929794,230.934540 177.066681,233.509583 
	C172.627472,235.860168 168.185547,235.655975 163.501099,232.967957 
	C162.407425,231.812775 161.677765,230.764420 160.846954,229.410690 
z"/>
<path fill="#3557FE" opacity="1.000000" stroke="none" 
	d="
M153.928162,208.015961 
	C154.143921,207.752930 154.359680,207.489883 154.820953,207.144104 
	C158.190659,209.831314 158.157104,212.953461 155.452484,215.553711 
	C151.910110,218.959381 148.665802,222.675095 144.621445,226.971115 
	C143.732346,224.359390 143.300827,223.091797 142.755997,221.491379 
	C141.696594,222.195450 140.840469,223.079147 139.813782,223.379150 
	C137.866776,223.948105 135.822037,224.182495 133.817886,224.555847 
	C134.580734,221.984192 134.706512,217.737228 136.227356,217.158875 
	C140.576660,215.504959 145.492432,215.340668 150.185440,214.590561 
	C150.467514,215.112610 150.749588,215.634674 151.031677,216.156723 
	C151.635254,213.978989 152.238831,211.801239 152.835510,209.240479 
	C152.828598,208.857468 152.886978,208.903015 153.068542,208.800781 
	C153.516174,208.510788 153.742188,208.283264 153.928162,208.015961 
z"/>
<path fill="#3557FE" opacity="1.000000" stroke="none" 
	d="
M119.992432,232.993469 
	C119.737160,231.300613 119.489082,229.614029 119.241013,227.927460 
	C119.682495,227.707260 120.123970,227.487076 120.565453,227.266876 
	C121.534805,228.483231 122.504158,229.699600 123.473511,230.915955 
	C122.556343,231.604233 121.639183,232.292526 120.367523,232.996826 
	C120.013016,233.012817 119.999634,232.999771 119.992432,232.993469 
z"/>
<path fill="#3557FE" opacity="1.000000" stroke="none" 
	d="
M205.706482,206.151367 
	C206.022659,207.712433 206.031738,209.435532 206.034515,211.590210 
	C203.468887,210.377823 203.396774,208.459869 205.706482,206.151367 
z"/>
<path fill="#3557FE" opacity="1.000000" stroke="none" 
	d="
M205.326080,192.197754 
	C204.790146,192.754883 204.176682,193.053818 203.563232,193.352753 
	C203.407532,192.810455 203.251831,192.268143 203.096130,191.725845 
	C203.813599,191.797089 204.531097,191.868317 205.326080,192.197754 
z"/>
<path fill="#3557FE" opacity="1.000000" stroke="none" 
	d="
M160.948669,204.851227 
	C161.227539,205.600220 161.261353,206.281631 161.295166,206.963043 
	C160.785828,206.819443 160.276505,206.675858 159.767181,206.532257 
	C160.079330,205.949387 160.391479,205.366501 160.948669,204.851227 
z"/>
<path fill="#3557FE" opacity="1.000000" stroke="none" 
	d="
M120.577332,221.321655 
	C121.109039,221.961716 121.454117,222.769043 121.799187,223.576370 
	C121.398712,223.672974 120.998230,223.769577 120.597748,223.866180 
	C120.528725,223.073761 120.459709,222.281357 120.577332,221.321655 
z"/>
<path fill="#3557FE" opacity="1.000000" stroke="none" 
	d="
M142.977371,188.690369 
	C142.792084,189.041000 142.495316,189.256592 142.181931,189.444504 
	C142.165344,189.454468 142.008255,189.230133 141.916580,189.114868 
	C142.231873,188.926437 142.547150,188.737991 142.977371,188.690369 
z"/>
<path fill="#3557FE" opacity="1.000000" stroke="none" 
	d="
M163.162872,198.220459 
	C162.986374,198.137222 162.892609,197.979370 162.798859,197.821503 
	C162.947769,197.929611 163.096695,198.037704 163.162872,198.220459 
z"/>
<path fill="#3557FE" opacity="1.000000" stroke="none" 
	d="
M176.726013,192.965668 
	C176.909058,192.896317 177.087509,192.940140 177.265945,192.983978 
	C177.084427,193.015594 176.902924,193.047211 176.726013,192.965668 
z"/>
<path fill="#EFF6FE" opacity="1.000000" stroke="none" 
	d="
M167.339844,228.647659 
	C167.216766,228.634705 167.143448,228.464478 167.052521,228.152344 
	C167.220703,228.115570 167.338928,228.275543 167.339844,228.647659 
z"/>
<path fill="#3859FA" opacity="1.000000" stroke="none" 
	d="
M294.772156,213.957123 
	C294.772430,200.498764 294.772430,187.533691 294.772430,174.107803 
	C306.392578,172.712128 317.452972,171.486038 326.371338,180.732361 
	C334.230286,188.880295 335.657440,204.677292 329.622040,215.356064 
	C324.222870,224.909241 311.642517,230.066162 300.160553,227.544693 
	C296.513428,226.743790 294.655090,224.740677 294.768311,220.949127 
	C294.832947,218.784775 294.774780,216.616745 294.772156,213.957123 
z"/>
<path fill="#3F5DEC" opacity="1.000000" stroke="none" 
	d="
M151.878571,199.558136 
	C149.394455,208.458405 141.847473,210.314316 134.868958,212.773605 
	C134.481049,212.910309 132.478775,210.370361 132.696625,210.037460 
	C136.227936,204.641556 139.782043,199.223938 143.875885,194.260681 
	C144.804718,193.134598 148.272430,192.893372 149.693665,193.732193 
	C151.040909,194.527344 151.236633,197.273575 151.878571,199.558136 
z"/>
<path fill="#3A5BF5" opacity="1.000000" stroke="none" 
	d="
M153.670319,208.068405 
	C153.742188,208.283264 153.516174,208.510788 153.044830,208.829208 
	C153.030518,208.680191 153.221512,208.400513 153.670319,208.068405 
z"/>
</svg>